# xmcd CD database file
#
# Track frame offsets:
#	150
#	9977
#	28997
#	34530
#	58532
#	73080
#	95710
#	118112
#
# Disc length: 1879 seconds
#
# Revision: 2
# Processed by: cddbd v1.5.2PL0 Copyright (c) Steve Scherf et al.
# Submitted via: CDex 1.51
#
DISCID=68075508
DTITLE=風潮 - 西藏大峽谷
DYEAR=2004
DGENRE=New Age
TTITLE0=往虹霞瀑布的路上 On The Way to The Rainbow Waterfall
TTITLE1=森林裡的塔巴人 Luobas of The Forest
TTITLE2=豪俠歌 Song of The Highway Men
TTITLE3=風馬旗 Religious Flags
TTITLE4=冰河 The Glacier
TTITLE5=原始森林 The Ancient Forest
TTITLE6=江上船歌 Rafts on The Zangbo
TTITLE7=人間˙秘境 A Realm of Paradise
EXTD=YEAR: 2004
EXTT0=
EXTT1=
EXTT2=
EXTT3=
EXTT4=
EXTT5=
EXTT6=
EXTT7=
PLAYORDER=
